<svg xmlns="http://www.w3.org/2000/svg" viewBox="0 0 570.94 311.22"><defs><style>.cls-1{fill:#5ca9a8;}</style></defs><title>LOGO-SAPHIRE-USER</title><g id="Capa_2" data-name="Capa 2"><g id="Capa_1-2" data-name="Capa 1"><g id="Capa_2-2" data-name="Capa 2"><g id="Capa_1-2-2" data-name="Capa 1-2"><path class="cls-1" d="M219.87,136.13l.16-.31V132a22.58,22.58,0,0,0-.16-2.6,21,21,0,0,0-.47-2.6,19.21,19.21,0,0,0-1.73-5,35.8,35.8,0,0,0-2.84-4.73,13.49,13.49,0,0,0-1.81-2,22.45,22.45,0,0,0-2.13-1.73,20.92,20.92,0,0,0-2-1.5q-1.1-.71-2.21-1.34a52.68,52.68,0,0,0-9.3-3.47,45.6,45.6,0,0,0-4.73-1l-4.73-.71q-2.36-.31-4.73-.47l-4.57-.32q-4.73-.16-9.3-.08t-9.14.24l-18.29,1.1-9,.63-9,.63q-4.58.32-9,.39t-8.87-.14q-2.21-.16-4.34-.24a40.75,40.75,0,0,1-4.34-.39,55,55,0,0,1-8.2-1.42l-1.89-.63q-.95-.31-1.73-.63c-.53-.31-1-.6-1.5-.87a11.29,11.29,0,0,1-1.34-.87,5.17,5.17,0,0,1-1.73-2A6.13,6.13,0,0,1,80,97.82a14.14,14.14,0,0,1,0-3l.32-1.58a8.79,8.79,0,0,1,.47-1.58,15,15,0,0,1,1.34-3.31,34.29,34.29,0,0,1,2-3.15,55.08,55.08,0,0,1,5.36-5.83A50.14,50.14,0,0,1,95.8,74q1.73-1.26,3.47-2.44t3.47-2.44l7.41-4.41q3.78-2.21,7.72-4.18t7.88-3.86q8-3.78,16.24-7.09t16.55-6.46Q167,40,175.49,37.2t16.95-5.28q4.41-1.26,8.67-2.52T209.62,27l8.67-2.36,4.41-1.1,2-.47,2.21-.47a1.23,1.23,0,0,1,.47-.16.45.45,0,0,0,.31-.16,11.09,11.09,0,0,0,6.78-5.6A11,11,0,0,0,235.32,8a10.81,10.81,0,0,0-5.6-6.7A11.25,11.25,0,0,0,221,.55l-2.36.79L216.4,2,212,3.39q-2.21.79-4.34,1.5t-4.34,1.5l-8.67,3.07Q190.39,11,186,12.69q-8.51,3.16-17,6.62T152,26.4q-4.26,1.74-8.51,3.63T135,34q-8.36,4.1-16.55,8.51-4.1,2.21-8,4.57t-7.88,5A135.42,135.42,0,0,0,87.28,63.61q-1.74,1.58-3.55,3.31t-3.55,3.47A64.12,64.12,0,0,0,74,78.59a14.23,14.23,0,0,0-1.34,2.29q-.56,1.18-1.18,2.44l-.95,2.52a19.92,19.92,0,0,0-.79,2.68,24.49,24.49,0,0,0-.95,5.68A27.62,27.62,0,0,0,69,97.11q.16,1.5.47,3.07a16.69,16.69,0,0,0,2.68,6,20.36,20.36,0,0,0,4.57,4.41,22.44,22.44,0,0,0,5,2.52q2.21.79,5,1.58,2.52.47,4.89.79t4.89.47q2.36.16,4.73.16h4.57q9.46-.16,18.44-.95l18.13-1.58,9-.63,9-.63q4.57-.15,8.91-.24t8.91.08q2.21.16,4.34.24a42.46,42.46,0,0,1,4.34.39q2.2.32,4.26.71t4.1.87l4,1.26a21.41,21.41,0,0,1,3.71,1.58,19.5,19.5,0,0,1,3.15,2.13,16.88,16.88,0,0,1,2.52,2.6,14.72,14.72,0,0,1,3,6.46,15.54,15.54,0,0,1,.47,3.78v2a2.22,2.22,0,0,1-.16.95v.95a28,28,0,0,1-.87,3.86q-.55,1.81-1.34,3.71a28.57,28.57,0,0,1-1.89,3.47,37.53,37.53,0,0,1-2.37,3.31,46.59,46.59,0,0,1-5.83,6.31q-1.58,1.42-3.23,2.84T193,162.3a124.88,124.88,0,0,1-14.66,9.46,168.76,168.76,0,0,1-15.76,8q-4.1,1.89-8.28,3.63T146,186.7q-8.36,3.31-16.79,6.15t-17.11,5.52q-8.67,2.68-17.26,4.89t-17.42,4.41q-4.42,1.1-8.83,2.13t-8.83,2L51,213.69l-4.41.95q-2.21.47-4.41.79l-4.41.95q-2.21.47-4.41.79l-8.83,1.58-8.83,1.42-4.41.79-4.41.63H6.25a8.1,8.1,0,0,0-5,3.55,7.18,7.18,0,0,0-1,5.91,7.51,7.51,0,0,0,3.39,5,7.18,7.18,0,0,0,5.91,1l2.36-.47,6.62-1.42,9-2.21,8.83-2,8.83-2.21L54,226.46l8.83-2.37,17.66-4.89q8.83-2.68,17.5-5.28t17.34-5.6q8.67-3,17.18-6.07t17-6.7q4.26-1.74,8.51-3.63t8.38-3.94q4.1-2,8.2-4.18t8-4.49q2-1.26,4-2.44t3.86-2.44q2-1.26,3.94-2.68l3.78-2.84,3.62-2.93q1.81-1.5,3.55-3.23t3.39-3.55a46.4,46.4,0,0,0,3.07-3.71A49.89,49.89,0,0,0,217,147a40,40,0,0,0,2.84-9.93Z"/><path class="cls-1" d="M418.19,93.72a8.69,8.69,0,0,0,6.78.39,8.38,8.38,0,0,0,5-4.49l3.94-8.2a13.9,13.9,0,0,0,1-3.47,10.67,10.67,0,0,0-2.37-7.65,9.53,9.53,0,0,0-7.09-3.7A10.4,10.4,0,0,0,417.87,69a10.15,10.15,0,0,0-3.78,7.09l-.79,8.83a8.36,8.36,0,0,0,1,5.12A8.75,8.75,0,0,0,418.19,93.72Z"/><path class="cls-1" d="M570.72,127.14A5,5,0,0,0,567.8,124a5.67,5.67,0,0,0-4.41-.39,5.48,5.48,0,0,0-3.31,2.92v.16l-.47.79-1.42,2.84-1.89,3.63-2,3.63-2,3.63q-2.05,3.63-4.26,7.09l-4.41,6.94L538.79,162q-1.26,1.74-2.44,3.31t-2.44,3.31l-5.2,6.15a36.58,36.58,0,0,1-2.68,3q-1.42,1.42-2.84,2.68T520.27,183a32.92,32.92,0,0,1-2.92,2.21l-1.5.87-1.34.71a8.11,8.11,0,0,1-2.52.47h-.79a.45.45,0,0,0-.16-.31l-.31-.63-.32-1.1a2.83,2.83,0,0,1-.31-1.26,16.57,16.57,0,0,1-.24-1.66c0-.58-.08-1.18-.08-1.81q0-1.73.16-3.62t.47-3.78l.79-3.78.95-3.31a1.06,1.06,0,0,0,.79.32,15.52,15.52,0,0,0,2.36.79h2.21a10.82,10.82,0,0,0,3.63-.95l2.68-1.42,2.37-1.73,1.89-1.73a20.17,20.17,0,0,0,1.73-2l1.58-2a52.93,52.93,0,0,0,5.2-8.36l.47-1.1.47-1.1,1-2a31.86,31.86,0,0,0,1.73-4.1l1-2.21a6.23,6.23,0,0,1,.79-2q.79-2.52,1.26-4.57c.21-.73.39-1.5.55-2.29s.34-1.6.55-2.44a29.09,29.09,0,0,0,.47-5.36v-1.58a8.21,8.21,0,0,0-.16-1.58l-.31-1.89-.47-2-1.1-2.52-.79-1.26q-.16-.31-.39-.71a3.85,3.85,0,0,0-.55-.71,19.75,19.75,0,0,0-3-2.68,14.15,14.15,0,0,0-3.94-1.73,8.7,8.7,0,0,0-1.89-.32,2.24,2.24,0,0,0-1-.16H529.5a1.78,1.78,0,0,0-.79.16,3.71,3.71,0,0,0-.71.08,3.54,3.54,0,0,1-.71.08,20.22,20.22,0,0,0-4.73,1.89,8.26,8.26,0,0,0-1.81,1l-1.5,1.18a9.23,9.23,0,0,0-2.36,2.21q-1.11,1.1-2,2.13a20.3,20.3,0,0,0-1.65,2.29l-1.42,2-1.26,2.21q-1.26,2.21-2.21,4.26t-1.89,4.26a92.8,92.8,0,0,0-4.6,14,38.23,38.23,0,0,1-4.62,4.25,26.52,26.52,0,0,1-5.44,3.31,12,12,0,0,1-4.73,1.18,1.07,1.07,0,0,0-.79.32,1.75,1.75,0,0,1,.16-.79,3.92,3.92,0,0,1,.47-1.73,9.59,9.59,0,0,1,.63-1.89,10.37,10.37,0,0,1,.79-1.89,19.48,19.48,0,0,1,2-3.94,44.4,44.4,0,0,1,4.89-7.57c.42-.52.84-1.1,1.26-1.73a11.31,11.31,0,0,1,1.42-1.73l.16-.16h.16l.16-.16h-.16a6.77,6.77,0,0,1,1.26-1.58,5.32,5.32,0,0,0,.63-.79q.31-.47,1.58-2.52a10.32,10.32,0,0,0,.55-5.2,10,10,0,0,0-9.14-8.36,9.77,9.77,0,0,0-7.33,2.37l-.16.16h-.16l-.79.79-1.1.95-1.89,1.89-3.94,3.78q-1.89,1.89-3.71,3.86l-3.71,4q-3.63,4.1-7,8.2t-6.54,8.36l1-2.36,4.1-10.41q2-5.2,4.26-10.4L470.37,112l2.21-5.2,2.21-5,.63-2.36a9.17,9.17,0,0,0-.63-6.23,9.59,9.59,0,0,0-4.57-4.65,9,9,0,0,0-7.25-.39,9.38,9.38,0,0,0-5.36,5L456.66,95v-.16l-.16.63-14.4,30a6.33,6.33,0,0,0-.74.91q-.95,1.74-2,3.39t-2.28,3.39l-1.1,1.73-1.1,1.58-2.21,3.47-1.1,1.58-1.1,1.73-2.37,3.31-2.21,3.15-4.73,6.62-2.37,3.15-2.37,3.31-2.52,3.15-2.36,3.15L409,172.23l-1.42,1.89a22.59,22.59,0,0,1,.39-2.29l.55-2.29a12.58,12.58,0,0,1,1-3.78l1-3.78,1.1-3.78,1.26-3.78,1.26-3.78q.63-1.89,1.42-3.78.63-1.89,1.34-3.71t1.5-3.71l.79-1.89.79-1.73.79-1.89.47-.79.31-.95.63-1.58a9.1,9.1,0,0,0,.47-1.58,10.35,10.35,0,0,0-2.21-7.8,9.93,9.93,0,0,0-6.94-3.86,9.59,9.59,0,0,0-7.65,2,9.93,9.93,0,0,0-3.86,6.94v.16l-.63,4.1-.47,4.1v.21l-14.15,19a4.93,4.93,0,0,1,.31-1.42q.63-2.37,1.18-4.73t1-4.73l1-4.89.79-4.89A9.51,9.51,0,0,1,391,132a9.69,9.69,0,0,0,.08-1.34,7.45,7.45,0,0,0,.16-1.42v-3a7.63,7.63,0,0,0-.16-1.73,5.77,5.77,0,0,0-.08-.95c0-.32-.13-.68-.24-1.1l-.47-1.58-.47-.95a3.81,3.81,0,0,0-.63-.95,4.67,4.67,0,0,0-1.1-1.26,5.22,5.22,0,0,0-1.58-1.26,10.53,10.53,0,0,0-2.21-1.1,1.69,1.69,0,0,1-.55-.08,1.77,1.77,0,0,0-.55-.08h-.32l-.31-.16h-1c-.21,0-.31.05-.31.16H381a2.72,2.72,0,0,0-1.1.16l-1.42.47a9.81,9.81,0,0,0-1.73.95l-1.1.79a1.71,1.71,0,0,1-.79.63l-1.1,1.26a20.81,20.81,0,0,0-1.89,2.21l-1.73,2L367.27,128a11.7,11.7,0,0,0-1.34,2,20.37,20.37,0,0,1-1.34,2.13l-2.52,4.1q-1.26,2.05-2.52,4.26l9.14-27.12q2.2-7.09,4.57-14t4.89-13.79a11.94,11.94,0,0,0,1.34-2,19.79,19.79,0,0,1,1.34-2.13q1.26-1.73,2.29-3.47t2-3.63l4.1-7.25,1.89-3.94q.47-1.1,1-2.13a13.06,13.06,0,0,0,.79-2.29l1-2.84A8.54,8.54,0,0,1,394,54a2.48,2.48,0,0,1,.08-.63,2.67,2.67,0,0,0,.08-.63v-2.6a3.75,3.75,0,0,0-.32-1.34l-.39-1.5a6.33,6.33,0,0,0-.87-1.81l-.63-1.1-.79-1A9.64,9.64,0,0,0,389,41.54l-1.26-.63a6.28,6.28,0,0,0-1.26-.47,1.13,1.13,0,0,0-.55-.24c-.26,0-.29-.08-.08-.08h-.47a1.06,1.06,0,0,1-.47-.08.72.72,0,0,0-.32-.08,2.24,2.24,0,0,0-.94-.16h-1.89a1.09,1.09,0,0,0-.47.08,1.09,1.09,0,0,1-.47.08.7.7,0,0,0-.31.08.68.68,0,0,1-.32.08,1.75,1.75,0,0,1-.79.16l-1.89,1a7.27,7.27,0,0,1-.79.47,2.44,2.44,0,0,0-.63.47l-.79.63-.63.63-.47.47-.79,1-1.1,1.58a2.47,2.47,0,0,0-.47.63l-.31.63q-.32.63-.63,1.18a10.91,10.91,0,0,1-.63,1L368.37,54q-.79,2.05-1.58,3.94t-1.58,3.94q-1.42,3.78-2.68,7.65T360,77.17l-1.58,4.57-1.89,3.47-7.41,13.87-3.79,6.9q-.79,1.74-1.73,3.55t-1.89,3.55q-1.74,3.63-3.47,7.09c-1,2-2,4.09-3,6.19a5.18,5.18,0,0,0-.91,1.06l-4.41,7.25L325.49,142q-2.21,3.63-4.49,7t-4.81,6.7l-4.89,6.46q-2.68,2.84-5.52,5.52-.79.63-1.42,1.18a9.83,9.83,0,0,1-1.42,1l-1.42.95q.79-1.58,1.73-3.07l2-3.23q4.26-6.62,8.51-13.72.47-.79,1-1.73a9.7,9.7,0,0,1,1.1-1.73l1-1.89a17.25,17.25,0,0,1,1.1-1.89l1.89-3.78c.32-.73.63-1.42,1-2a10.88,10.88,0,0,0,.79-2.21l1-2.21.79-2.68q.16-.79.32-1.65a11.28,11.28,0,0,0,.16-2v-2.68l-.47-1.89a10.22,10.22,0,0,0-.94-2.21,8.46,8.46,0,0,0-.79-1.26l-.94-1.26a12.41,12.41,0,0,0-1.26-1.1,8.4,8.4,0,0,0-1.26-.79,8.54,8.54,0,0,0-2.68-1.1,13.38,13.38,0,0,0-2.21-.32H310.8l-1.89.32a18.08,18.08,0,0,0-1.81.39,15.31,15.31,0,0,0-1.65.55l-2.84,1.42a22.66,22.66,0,0,0-4.57,3.47l-3.47,3.78-2.68,3.78-1.1,1.89-1.1,2-1.88,4-1.89,3.78a24.34,24.34,0,0,1-1,2.36,24.55,24.55,0,0,0-1,2.37l3.2-11.45.42-.69a5.14,5.14,0,0,0,.83-3.78l7.06-25.23a4.87,4.87,0,0,0-.47-3.63A5.58,5.58,0,0,0,292,97.19a4.52,4.52,0,0,0-3.94.24,5.07,5.07,0,0,0-2.52,3.07l-10,30.15c-.28.4-.54.84-.82,1.22l-3.47,5.52-6.31,10.25.47-1.73.16-.95v-.47l.16-.16v-.16a8.48,8.48,0,0,0-.39-5.68,8.27,8.27,0,0,0-3.86-4.26,8.18,8.18,0,0,0-6.54-.71,8.45,8.45,0,0,0-5.12,4.18l-1.26,2.21v.95a2.19,2.19,0,0,0-.16.95c0,.11,0,.16-.08.16s-.08.05-.08.16L248,142v1.42a.64.64,0,0,0-.16.47l-.95,3.94q-.47,2.05-1.1,4c-.42,1.32-.84,2.6-1.26,3.86s-1,2.68-1.5,3.94l-1.5,3.78c-.5,1.26-1.08,2.5-1.65,3.71s-1.18,2.39-1.81,3.55l-.95,1.73-.95,1.58c-.21.31-.39.61-.55.87a3.59,3.59,0,0,1-.55.71,3,3,0,0,0-.55.79,3,3,0,0,1-.55.79l-1.1,1.26-.79.79v-1.1q0-.79.08-1.73t.24-1.89q.16-.95.24-1.89a8.25,8.25,0,0,1,.39-1.89l.95-3.78.63-1.89.63-1.89.63-1.89.63-1.89,1.47-3.64q3.47-7.72,7.25-14.35l4.41-6.46q1.26-1.57,2.52-3.07t2.52-2.76A10.49,10.49,0,0,1,256,127.7q.63-.55,1.26-1.18l2.68-2a9.65,9.65,0,0,1,2.68-1.42l1.1-.47h.63l.16-.16h.31a10.74,10.74,0,0,0,3.15-1.42,10.22,10.22,0,0,0,4.41-6.7,10,10,0,0,0-1.73-7.8,9.68,9.68,0,0,0-6.54-4.41,10,10,0,0,0-7.8,1.73l-.63.31-.31.32-.47.16-1.26.95-2.21,1.89-3.94,3.78-3,4.1a21.37,21.37,0,0,0-1.42,1.89q-.63.95-1.26,2-1.26,2.05-2.37,4t-2.21,4q-.95,2-1.89,4t-1.73,4a160.87,160.87,0,0,0-6.15,16.4l-1.1,4.26q-.31,1.1-.55,2.13c-.16.68-.34,1.39-.55,2.13s-.39,1.45-.55,2.13-.34,1.4-.55,2.13l-.79,4.41c-.1.74-.21,1.47-.32,2.21a15.93,15.93,0,0,0-.16,2.21q-.16,1.26-.24,2.44a13,13,0,0,0,.08,2.44v1.26a5.24,5.24,0,0,0,.16,1.26l.32,1.58a9.07,9.07,0,0,0,.47,1.58l.79,1.73a6.48,6.48,0,0,1,.71.87,3.44,3.44,0,0,0,.87.87,4.73,4.73,0,0,0,2.36,1.58,8.5,8.5,0,0,0,2.68.47,3.51,3.51,0,0,0,1.1-.16h.63a.64.64,0,0,1,.47-.16l1.89-.63,2.52-1.73a19.69,19.69,0,0,0,3.63-3.63,17.88,17.88,0,0,0,1.58-1.89,6.66,6.66,0,0,0,1.26-1.73l1.42-1.89q.31-.47.63-.87t.63-.87l2.84-4.41a6.07,6.07,0,0,1,.24,1.1,3.81,3.81,0,0,0,.39,1.26l.63,1.58.47,1.1.79,1.26h.16a4,4,0,0,0,2.21,1.73,5.18,5.18,0,0,0,4.49.16l.22-.12L220.5,295.83l-.79,2-.16.47a10.43,10.43,0,0,0,1.1,7.72,9.68,9.68,0,0,0,6.15,4.73,9.26,9.26,0,0,0,7.72-.87,10.56,10.56,0,0,0,4.89-6.23L270,194.14l5.52-14q1.58-3.62,3.23-7.25t3.55-7.25l3.94-6.94q.47-.79,1-1.65a11.59,11.59,0,0,1,1.1-1.66,13.72,13.72,0,0,1,1-1.73,11.71,11.71,0,0,0,1-1.58,62.54,62.54,0,0,1,4.89-6.31l2.68-2.84,1.26-1.1-.63,1.26q-.79,1.74-1.58,3.63l-1.58,3.78-1.58,3.78q-.79,1.89-1.58,3.94l-1.42,3.94-1.1,4.26a26.68,26.68,0,0,0-1,4.57q-.16.79-.24,1.42a11.3,11.3,0,0,0-.08,1.42,6.58,6.58,0,0,0,.16,1.58,13,13,0,0,0,.31,2.21l.32.95a3.88,3.88,0,0,0,3,2.68,5.67,5.67,0,0,0,1.5.39,14.12,14.12,0,0,1,1.5.24,19.66,19.66,0,0,0,8.67-1.26q1.26-.63,2.44-1.18a9.68,9.68,0,0,0,2.13-1.34,30.07,30.07,0,0,0,3.94-3,47.67,47.67,0,0,0,6.31-6.62q3-3.47,5.52-6.94,2.68-3.62,5-7.17t4.65-7.17l8.83-14.35a4.36,4.36,0,0,0,.82-2l1.38-1.46-2.21,9.14Q340.78,146.22,339,154l-3.47,15.45q-1,3.94-1.73,7.8l-1.58,7.8q-.31,1.89-.71,3.86t-.87,3.86l-.32,2-.31,1.89a8.28,8.28,0,0,0-.39,2q-.08,1-.24,2l-.16.79a3.68,3.68,0,0,0,.39,2.68,4.43,4.43,0,0,0,2.13,1.89,3.93,3.93,0,0,0,3.07,0,3.83,3.83,0,0,0,2.13-2.37q2.68-3.94,5.12-7.88t5.12-8l9.93-16.08,9.77-15.92,3.71-5.91q1.82-2.91,3.86-5.91L372.16,159l-1.42,9.14-.31,2.37-.16,1.26-.16,1.1a13.12,13.12,0,0,0-.31,2.36,13.13,13.13,0,0,0-.31,2.37,4.18,4.18,0,0,0,1.58,4.73,4.25,4.25,0,0,0,3.31.79,5.17,5.17,0,0,0,3-1.73l20.84-28.15-.82,6.08-.47,4.1-.47,4.1a42.22,42.22,0,0,0-.39,4.34q-.08,2.13-.24,4.34v2.21a19.53,19.53,0,0,0,.16,2.37,10.2,10.2,0,0,0,0,1.22q.08.63.24,1.42l.47,1.58a5.67,5.67,0,0,1,.31.79,8.93,8.93,0,0,0,.47,1.1l.63,1.1.63.63.63.63a7.06,7.06,0,0,0,1.73,1.1l2,.47h1.1a.69.69,0,0,0,.31-.08,1.09,1.09,0,0,1,.47-.08,1.21,1.21,0,0,1,.47-.16.46.46,0,0,0,.31-.16h.32l.16-.16.16-.16c.11,0,.26-.11.47-.32l.63-.31.31-.31L409,188l1.42-1.73,1.26-1.73q1.26-1.73,2.44-3.31t2.44-3.31l4.73-6.62,4.73-6.46,7.09-9.93,2.36-3.15,2.37-3.31,1.26-1.58,1.1-1.58a19.44,19.44,0,0,0,1.18-1.65,9.77,9.77,0,0,1,1.34-1.65l.49-.7c-.73,2.86-1.45,5.72-2.14,8.58q-1.34,5.52-2.6,11.19a55.32,55.32,0,0,0-1.26,5.68q-.47,2.84-1.1,5.68-.47,2.84-.87,5.68t-.71,6v.47a3.59,3.59,0,0,0,.55,2.84,5.37,5.37,0,0,0,2.29,1.89,4.19,4.19,0,0,0,3.55,0,4.89,4.89,0,0,0,2.6-2.52,145.85,145.85,0,0,1,11.19-16.4q3.15-3.94,6.46-7.65t6.94-7.33l4.1-4.1q2-2,4.26-3.94v4.18a5.68,5.68,0,0,0,.32,1.81l.63,2a25,25,0,0,0,1.42,2.21,9.78,9.78,0,0,0,2.52,1.89,5,5,0,0,0,1.42.31l1.26.32a7.13,7.13,0,0,0,1-.08,7.31,7.31,0,0,1,1-.08c4.31-.1,8.65-1.75,13-4.91-.4,2.58-.76,5.21-1,7.91l-.47,4.41a20.52,20.52,0,0,1-.08,2.29,20.52,20.52,0,0,0-.08,2.29,44,44,0,0,0-.08,4.57q.08,2.37.39,4.73.16,1.26.31,2.52a21.76,21.76,0,0,0,.47,2.52l.79,2.68a11.37,11.37,0,0,0,.63,1.34,10.5,10.5,0,0,1,.63,1.34,16.72,16.72,0,0,0,.94,1.42q.47.63,1.1,1.42a18.56,18.56,0,0,0,3.15,2.52,14.5,14.5,0,0,0,3.78,1.1.32.32,0,0,1,.24.08.33.33,0,0,0,.24.08h1.42a7.51,7.51,0,0,0,1.73-.16,7,7,0,0,0,1.5-.16,10,10,0,0,0,1.5-.47l2.52-.95,2.37-1.26,2-1.42a42.13,42.13,0,0,0,7.09-6q1.73-1.58,3.15-3.15t2.84-3.31q1.42-1.73,2.84-3.39t2.68-3.39l5-6.78q1.26-1.73,2.44-3.55t2.44-3.55q2.52-3.47,4.81-7L561,146.5a9.69,9.69,0,0,0,1.1-1.73,17.46,17.46,0,0,1,1.1-1.89l2.21-3.47,2.37-3.63L570,132l.31-.47A6.11,6.11,0,0,0,570.72,127.14Zm-339.81,53V180H231Zm254.45-28.69h-.16a.45.45,0,0,1-.32-.16h.47Zm38.62-15,.47-.95a.63.63,0,0,1-.08.39.61.61,0,0,0-.08.39l-.47,3.94-.31,2-.16.47v.47a1.1,1.1,0,0,1-.08.47.69.69,0,0,0-.08.31q-.32,1.74-.79,3.47a17.86,17.86,0,0,1-1.26,3.31,27.89,27.89,0,0,1-1.73,2.84,6.24,6.24,0,0,1-1.89,2.21,2.27,2.27,0,0,0-.39.47.85.85,0,0,1-.39.31,3,3,0,0,0-.16-.94,11.66,11.66,0,0,1-.24-1.18,9.45,9.45,0,0,1-.08-1.34l1.1-2.68,1.42-3.62,1.74-3.63q.79-1.73,1.65-3.39t1.85-3.33Z"/></g></g></g></g></svg>