<svg xmlns="http://www.w3.org/2000/svg" viewBox="0 0 274 149.38"><defs><style>.cls-1{fill:#333;}</style></defs><title>logo-admin</title><g id="Capa_2" data-name="Capa 2"><g id="LOGINS"><path class="cls-1" d="M105.5,65.33l.07-.15V63.37a10.71,10.71,0,0,0-.07-1.25,12,12,0,0,0-.23-1.25,9.27,9.27,0,0,0-.83-2.42,17.09,17.09,0,0,0-1.37-2.27,6.71,6.71,0,0,0-.87-1,10.25,10.25,0,0,0-1-.83,10.79,10.79,0,0,0-1-.72c-.35-.22-.71-.44-1.06-.64a25.34,25.34,0,0,0-4.46-1.66c-.76-.2-1.52-.37-2.27-.5l-2.27-.34c-.76-.1-1.51-.17-2.27-.22l-2.19-.15c-1.52-.05-3-.07-4.47,0s-2.92.06-4.39.11l-8.77.53-4.31.3-4.32.31c-1.46.1-2.9.16-4.31.19s-2.82,0-4.23,0l-2.08-.12a18.44,18.44,0,0,1-2.08-.18,26.47,26.47,0,0,1-3.94-.69l-.91-.3L41,49.9l-.72-.42a5.35,5.35,0,0,1-.64-.41,2.52,2.52,0,0,1-.83-1A2.84,2.84,0,0,1,38.39,47a6.93,6.93,0,0,1,0-1.44l.15-.75a4.15,4.15,0,0,1,.23-.76,7.35,7.35,0,0,1,.64-1.59c.28-.5.6-1,1-1.51a26.6,26.6,0,0,1,2.57-2.8,23.44,23.44,0,0,1,3-2.57c.55-.41,1.11-.8,1.66-1.18s1.11-.77,1.67-1.17l3.55-2.12c1.21-.7,2.45-1.37,3.71-2l3.78-1.86q3.86-1.82,7.79-3.4c2.63-1.06,5.27-2.09,7.95-3.1s5.43-2,8.13-2.84,5.41-1.73,8.13-2.53l4.16-1.21c1.36-.41,2.73-.78,4.09-1.14l4.16-1.13,2.12-.53,1-.23,1.06-.23a.56.56,0,0,1,.23-.07.22.22,0,0,0,.15-.08A5.33,5.33,0,0,0,112.53,8a5.3,5.3,0,0,0,.38-4.2A5.18,5.18,0,0,0,110.22.61,5.39,5.39,0,0,0,106,.27l-1.14.38-1.06.3-2.12.68c-.7.26-1.4.5-2.08.72l-2.08.72L93.39,4.55C92,5,90.64,5.54,89.23,6.1c-2.72,1-5.45,2.07-8.17,3.17s-5.45,2.25-8.17,3.41q-2,.83-4.08,1.74c-1.37.6-2.7,1.24-4,1.89q-4,2-7.95,4.09-2,1.05-3.86,2.19c-1.26.76-2.52,1.56-3.78,2.42a65.47,65.47,0,0,0-7.34,5.52l-1.7,1.59c-.58.56-1.15,1.11-1.7,1.67a31,31,0,0,0-2.95,3.93,6.42,6.42,0,0,0-.64,1.1c-.18.37-.37.77-.57,1.17s-.3.81-.46,1.21a9.3,9.3,0,0,0-.37,1.29A11.29,11.29,0,0,0,33,45.21a13.6,13.6,0,0,0,.08,1.4c0,.48.12,1,.22,1.47A8.33,8.33,0,0,0,34.61,51a10.32,10.32,0,0,0,2.19,2.12,11.46,11.46,0,0,0,2.43,1.21c.7.25,1.51.5,2.42.75s1.59.28,2.34.38,1.54.18,2.35.23,1.51.07,2.27.07H50.8q4.55-.07,8.85-.45l8.7-.76,4.31-.3,4.32-.3c1.46,0,2.88-.09,4.27-.11s2.81,0,4.27,0L87.6,54a18.48,18.48,0,0,1,2.08.19c.71.1,1.39.21,2,.34s1.31.26,2,.41l1.93.61a10.11,10.11,0,0,1,1.78.75,9.31,9.31,0,0,1,1.51,1,7.46,7.46,0,0,1,1.21,1.24,7,7,0,0,1,1.44,3.11,7.48,7.48,0,0,1,.23,1.81v1a1.05,1.05,0,0,1-.08.46v.45a14.14,14.14,0,0,1-.41,1.86,17.38,17.38,0,0,1-.65,1.77,13.64,13.64,0,0,1-.9,1.67q-.54.83-1.14,1.59a22,22,0,0,1-2.8,3c-.5.46-1,.91-1.55,1.36s-1.07.89-1.62,1.29a60.42,60.42,0,0,1-7,4.54C83,83.89,80.5,85.18,78,86.29c-1.31.6-2.63,1.18-4,1.74s-2.66,1.08-4,1.59q-4,1.59-8.06,2.95c-2.69.9-5.43,1.79-8.2,2.64s-5.54,1.64-8.29,2.35S40,99,37.18,99.68q-2.11.52-4.23,1c-1.42.33-2.83.64-4.24.94l-4.24.91-2.11.46c-.71.15-1.42.27-2.12.37l-2.12.46c-.71.15-1.41.28-2.12.38l-4.24.75-4.23.68L5.41,106l-2.12.3H3A3.9,3.9,0,0,0,.61,108a3.43,3.43,0,0,0-.5,2.83,3.65,3.65,0,0,0,1.63,2.39,3.45,3.45,0,0,0,2.84.49l1.13-.23,3.18-.68,4.31-1.06,4.24-1,4.23-1.06,4.24-1.06,4.24-1.13,8.47-2.35q4.23-1.29,8.4-2.53c2.77-.84,5.55-1.73,8.32-2.69s5.52-1.93,8.25-2.91S69,95,71.76,93.85q2-.82,4.08-1.74c1.36-.6,2.7-1.23,4-1.89s2.62-1.32,3.93-2,2.6-1.4,3.86-2.16l1.93-1.17c.63-.38,1.25-.77,1.85-1.17s1.29-.84,1.9-1.29l1.81-1.36,1.7-1.4c.58-.48,1.15-1,1.71-1.55s1.09-1.12,1.62-1.7,1-1.18,1.48-1.78a23.13,23.13,0,0,0,2.49-4.09,19.28,19.28,0,0,0,1.37-4.76Z"/><path class="cls-1" d="M200.66,45a4.15,4.15,0,0,0,3.26.19A4.08,4.08,0,0,0,206.34,43l1.89-3.94a6.62,6.62,0,0,0,.45-1.66,5.15,5.15,0,0,0-1.13-3.67A4.57,4.57,0,0,0,204.14,32a5,5,0,0,0-3.63,1.13,4.88,4.88,0,0,0-1.81,3.41l-.38,4.24a4,4,0,0,0,.49,2.45A4.19,4.19,0,0,0,200.66,45Z"/><path class="cls-1" d="M273.85,61a2.33,2.33,0,0,0-1.4-1.51,2.66,2.66,0,0,0-2.11-.19,2.58,2.58,0,0,0-1.59,1.4v.07l-.23.38-.68,1.36-.91,1.74L266,66l-1,1.74c-.66,1.16-1.34,2.3-2.05,3.41s-1.41,2.22-2.12,3.33l-2.27,3.25-1.17,1.59q-.57.75-1.17,1.59l-2.5,3a17.4,17.4,0,0,1-1.28,1.43c-.46.46-.91.89-1.37,1.29l-1.39,1.21a16.67,16.67,0,0,1-1.4,1.06l-.72.42-.65.34a3.84,3.84,0,0,1-1.21.22h-.37a.22.22,0,0,0-.08-.15l-.15-.3-.15-.53a1.34,1.34,0,0,1-.15-.61c-.05-.25-.09-.51-.12-.79s0-.57,0-.87c0-.55,0-1.13.08-1.74s.13-1.21.23-1.82l.38-1.81.45-1.59a.52.52,0,0,0,.38.15,7.49,7.49,0,0,0,1.13.38h1.06a5.2,5.2,0,0,0,1.74-.45l1.29-.69,1.13-.83.91-.83a10.34,10.34,0,0,0,.83-.94c.25-.33.51-.65.76-1a25.59,25.59,0,0,0,2.5-4l.22-.53.23-.53.45-1a15.46,15.46,0,0,0,.84-2l.45-1.06a3,3,0,0,1,.38-1c.25-.81.45-1.54.6-2.2.1-.35.19-.71.27-1.09s.16-.77.26-1.18a14,14,0,0,0,.23-2.57v-.75a3.84,3.84,0,0,0-.08-.76l-.15-.91L261,55l-.53-1.21-.38-.61c-.05-.1-.12-.21-.19-.34a2.24,2.24,0,0,0-.27-.34,9.44,9.44,0,0,0-1.43-1.28,6.7,6.7,0,0,0-1.89-.84,4.26,4.26,0,0,0-.91-.15,1.11,1.11,0,0,0-.46-.07h-.83a.86.86,0,0,0-.38.07,2.38,2.38,0,0,0-.34,0,1.42,1.42,0,0,1-.34,0,9.32,9.32,0,0,0-2.27.91,3.91,3.91,0,0,0-.87.49l-.72.56A4.65,4.65,0,0,0,248,53.3c-.35.36-.67.7-1,1a10.72,10.72,0,0,0-.79,1.1l-.68,1L245,57.46c-.4.71-.75,1.39-1.06,2s-.6,1.33-.9,2a44.18,44.18,0,0,0-2.21,6.7,19.15,19.15,0,0,1-2.22,2A12.69,12.69,0,0,1,236,71.88a5.86,5.86,0,0,1-2.27.56.49.49,0,0,0-.38.16.82.82,0,0,1,.08-.38,1.81,1.81,0,0,1,.23-.84,4.65,4.65,0,0,1,.3-.9,4.45,4.45,0,0,1,.38-.91,9.19,9.19,0,0,1,1-1.89,21.61,21.61,0,0,1,2.35-3.63c.2-.26.4-.53.6-.84a5.47,5.47,0,0,1,.68-.83l.08-.07h.07l.08-.08h-.08a3.56,3.56,0,0,1,.61-.76,2.4,2.4,0,0,0,.3-.37l.76-1.21a5,5,0,0,0,.26-2.5A4.58,4.58,0,0,0,239.93,55a4.87,4.87,0,0,0-6.81-.53l-.08.08H233l-.38.38-.53.45-.91.91-1.89,1.82c-.61.6-1.2,1.22-1.78,1.85l-1.78,1.93q-1.74,2-3.36,3.93c-1.09,1.31-2.13,2.65-3.14,4l.45-1.13,2-5c.65-1.66,1.33-3.33,2-5l2-5,1.06-2.5,1.06-2.42.3-1.13a4.38,4.38,0,0,0-.3-3,4.52,4.52,0,0,0-2.19-2.23,4.28,4.28,0,0,0-3.48-.19,4.48,4.48,0,0,0-2.57,2.38l-.46.91v-.08l-.07.3-6.91,14.4a3,3,0,0,0-.36.43c-.3.56-.61,1.1-.94,1.63s-.7,1.07-1.1,1.62l-.53.84-.53.75-1.06,1.67-.53.75-.53.84-1.13,1.59-1.06,1.51L202.1,75,201,76.53l-1.14,1.59-1.21,1.51-1.13,1.51-1.22,1.52-.68.9c0-.4.12-.76.19-1.09l.27-1.1a6.14,6.14,0,0,1,.45-1.82l.46-1.81.53-1.82.6-1.81c.2-.61.4-1.21.61-1.82s.42-1.21.68-1.81.41-1.2.64-1.78.47-1.17.72-1.78l.38-.91.37-.83.38-.91.23-.38.15-.45.3-.76a4.3,4.3,0,0,0,.23-.75,5,5,0,0,0-1.06-3.75,4.78,4.78,0,0,0-3.33-1.85,4.64,4.64,0,0,0-3.67,1,4.78,4.78,0,0,0-1.85,3.33v.08l-.3,2-.23,2v.1l-6.8,9.13a2.41,2.41,0,0,1,.15-.68c.21-.76.39-1.51.57-2.27s.34-1.51.49-2.27l.46-2.34.38-2.35a5.72,5.72,0,0,1,0-.64,4,4,0,0,0,0-.65,3.47,3.47,0,0,0,.08-.68V60.57a3.66,3.66,0,0,0-.08-.84,2.28,2.28,0,0,0,0-.45,5.06,5.06,0,0,0-.11-.53l-.23-.76-.22-.45a2,2,0,0,0-.31-.45,2,2,0,0,0-.53-.61,2.45,2.45,0,0,0-.75-.6,4.62,4.62,0,0,0-1.06-.53,1.1,1.1,0,0,1-.27,0,.68.68,0,0,0-.26,0h-.15l-.15-.08h-.46c-.1,0-.15,0-.15.08h-.15a1.3,1.3,0,0,0-.53.08l-.68.22a4.73,4.73,0,0,0-.83.46l-.53.38a.83.83,0,0,1-.38.3l-.53.6a11.09,11.09,0,0,0-.91,1.06l-.83,1-1.36,2a5.65,5.65,0,0,0-.65.94,9.4,9.4,0,0,1-.64,1l-1.21,2c-.4.66-.81,1.34-1.21,2l4.39-13c.7-2.27,1.44-4.5,2.19-6.69s1.54-4.4,2.35-6.62a5.86,5.86,0,0,0,.64-.95,11.14,11.14,0,0,1,.64-1,19.83,19.83,0,0,0,1.1-1.66c.33-.56.64-1.14.95-1.74l2-3.48.91-1.89c.15-.36.3-.7.46-1a6,6,0,0,0,.37-1.09l.46-1.36a4.08,4.08,0,0,1,.15-.91,1,1,0,0,1,0-.3,1.71,1.71,0,0,0,0-.31V24.06a1.81,1.81,0,0,0-.15-.64c0-.2-.11-.44-.19-.72a3.07,3.07,0,0,0-.41-.87l-.3-.53-.38-.45a4.86,4.86,0,0,0-1.06-.91l-.61-.3a3,3,0,0,0-.6-.23.49.49,0,0,0-.27-.11c-.12,0-.14,0,0,0h-.22a.47.47,0,0,1-.23,0,.4.4,0,0,0-.15,0,1,1,0,0,0-.45-.08h-.91a.47.47,0,0,0-.23,0,.63.63,0,0,1-.23,0,.4.4,0,0,0-.15,0,.28.28,0,0,1-.15,0,.86.86,0,0,1-.38.08l-.9.45c-.16.1-.28.18-.38.23a1,1,0,0,0-.31.22l-.37.31-.31.3-.22.23-.38.45-.53.76a1.2,1.2,0,0,0-.23.3l-.15.3-.3.57c-.1.18-.2.34-.3.49l-.91,2c-.26.65-.51,1.28-.76,1.89s-.5,1.24-.76,1.89c-.45,1.21-.88,2.43-1.28,3.67L172.75,37,172,39.23l-.91,1.67-3.55,6.65-1.82,3.33c-.25.56-.53,1.13-.83,1.71s-.61,1.14-.91,1.7c-.55,1.16-1.11,2.29-1.66,3.4s-1,2-1.45,3a2.16,2.16,0,0,0-.44.51l-2.12,3.48-2.12,3.48c-.71,1.16-1.42,2.28-2.15,3.37s-1.51,2.15-2.31,3.21l-2.35,3.1c-.86.91-1.74,1.8-2.65,2.65-.25.2-.48.39-.68.57a4.38,4.38,0,0,1-.68.49l-.68.46a16.48,16.48,0,0,1,.83-1.48c.31-.48.63-1,1-1.55q2-3.18,4.08-6.58c.15-.25.31-.53.46-.83a4.26,4.26,0,0,1,.53-.84l.45-.9a7.67,7.67,0,0,1,.53-.91l.91-1.82c.15-.35.3-.68.45-1a5.23,5.23,0,0,0,.38-1.06l.45-1.06.38-1.29c0-.25.1-.51.15-.79a5.35,5.35,0,0,0,.08-1V59.66l-.23-.91a4.82,4.82,0,0,0-.45-1.06,4,4,0,0,0-.38-.6l-.45-.61a7,7,0,0,0-.61-.53,4,4,0,0,0-.6-.38,4.51,4.51,0,0,0-1.29-.53,6.54,6.54,0,0,0-1.06-.15h-1.13l-.91.15c-.31.05-.6.12-.87.19a8.33,8.33,0,0,0-.8.27l-1.36.68A10.66,10.66,0,0,0,143,57.84l-1.67,1.82-1.28,1.81-.53.91-.53,1-.91,1.89-.91,1.81a10.85,10.85,0,0,1-.49,1.14,10.67,10.67,0,0,0-.49,1.13l1.54-5.49.2-.33a2.51,2.51,0,0,0,.4-1.82l3.38-12.1a2.3,2.3,0,0,0-.23-1.74,2.61,2.61,0,0,0-1.36-1.21,2.13,2.13,0,0,0-1.89.11A2.45,2.45,0,0,0,137,48.24L132.22,62.7c-.13.2-.26.41-.4.59l-1.66,2.65-3,4.91.23-.83.07-.45v-.23l.08-.07v-.08a4.06,4.06,0,0,0-.19-2.72,4.15,4.15,0,0,0-5-2.39,4,4,0,0,0-2.46,2l-.61,1.06v.45a1.08,1.08,0,0,0-.07.46s0,.07,0,.07,0,0,0,.08l-.07-.08v.68A.32.32,0,0,0,119,69l-.45,1.89c-.15.66-.33,1.3-.53,1.93s-.41,1.25-.61,1.85l-.72,1.89c-.22.61-.46,1.21-.71,1.82s-.52,1.2-.8,1.78-.57,1.15-.87,1.7l-.45.83-.46.76-.26.41a1.82,1.82,0,0,1-.27.35,1.29,1.29,0,0,0-.26.37,1.36,1.36,0,0,1-.27.38l-.53.61-.37.37v-.52c0-.26,0-.53,0-.84s.07-.6.12-.9.09-.61.11-.91a4.22,4.22,0,0,1,.19-.91l.45-1.82c.11-.3.21-.6.31-.9l.3-.91.3-.91.3-.91.69-1.74q1.67-3.7,3.48-6.88l2.11-3.1L121,63.25c.41-.48.81-.92,1.21-1.32a6.51,6.51,0,0,1,.61-.65c.2-.17.4-.36.61-.56l1.28-1a4.64,4.64,0,0,1,1.29-.68l.53-.22h.3l.08-.08h.15a5.17,5.17,0,0,0,1.51-.68,4.94,4.94,0,0,0,2.12-3.22,4.81,4.81,0,0,0-.83-3.74A4.66,4.66,0,0,0,126.72,49a4.82,4.82,0,0,0-3.75.83l-.3.15-.15.16-.23.07-.6.46-1.06.9-1.89,1.82-1.44,2a8.86,8.86,0,0,0-.68.9c-.2.31-.41.64-.61,1-.4.65-.78,1.3-1.13,1.93s-.71,1.27-1.06,1.93L112.91,63c-.3.64-.58,1.28-.83,1.93a78.34,78.34,0,0,0-3,7.87l-.53,2c-.1.36-.19.7-.27,1s-.16.66-.26,1-.19.69-.27,1-.16.67-.26,1l-.38,2.12L107,82.13a7.45,7.45,0,0,0-.08,1.06c-.05.4-.08.79-.11,1.17a6.61,6.61,0,0,0,0,1.17v.61a2.46,2.46,0,0,0,.07.6c0,.25.11.51.15.76a5.37,5.37,0,0,0,.23.75l.38.84a3.21,3.21,0,0,1,.34.41,1.67,1.67,0,0,0,.42.42,2.34,2.34,0,0,0,1.13.76,4.11,4.11,0,0,0,1.29.22,1.7,1.7,0,0,0,.53-.07h.3a.32.32,0,0,1,.23-.08l.9-.3,1.21-.83a9.53,9.53,0,0,0,1.74-1.74,7.8,7.8,0,0,0,.76-.91,3.48,3.48,0,0,0,.61-.83l.68-.91q.15-.23.3-.42a4.85,4.85,0,0,0,.3-.41l1.36-2.12a3.22,3.22,0,0,1,.12.53,1.55,1.55,0,0,0,.19.6l.3.76.23.53.37.6h.08a2,2,0,0,0,1.06.84,2.49,2.49,0,0,0,2.15.07l.11,0L105.8,142l-.38,1-.08.23a5,5,0,0,0,.53,3.7,4.64,4.64,0,0,0,2.95,2.27,4.42,4.42,0,0,0,3.71-.41,5.11,5.11,0,0,0,2.35-3l14.67-52.58,2.65-6.73c.5-1.16,1-2.32,1.55-3.48s1.1-2.32,1.7-3.48l1.89-3.33c.16-.25.31-.52.46-.79a5.83,5.83,0,0,1,.53-.8,6,6,0,0,1,.49-.83,8.9,8.9,0,0,0,.49-.76,29,29,0,0,1,2.35-3l1.28-1.36.61-.53-.3.6c-.26.56-.51,1.14-.76,1.74s-.51,1.21-.76,1.82L141,74c-.26.61-.51,1.24-.76,1.89l-.68,1.89-.53,2a12.76,12.76,0,0,0-.46,2.19c-.05.25-.08.48-.11.68a4.7,4.7,0,0,0,0,.68,3.16,3.16,0,0,0,.08.76,6.4,6.4,0,0,0,.15,1.06l.15.45A1.86,1.86,0,0,0,140.22,87a3,3,0,0,0,.72.19c.22,0,.46.06.72.11a9.52,9.52,0,0,0,4.16-.6L147,86.1a4.76,4.76,0,0,0,1-.64A14.62,14.62,0,0,0,149.9,84a23.06,23.06,0,0,0,3-3.18c1-1.11,1.84-2.22,2.65-3.33s1.65-2.31,2.38-3.44,1.47-2.28,2.23-3.44l4.24-6.89a2.08,2.08,0,0,0,.39-1l.67-.7-1.06,4.39q-.92,3.7-1.74,7.41c-.56,2.47-1.11,4.94-1.67,7.41-.3,1.27-.58,2.51-.83,3.75s-.5,2.48-.76,3.74c-.1.61-.21,1.23-.34,1.86s-.26,1.25-.41,1.85l-.15,1-.16.91a3.72,3.72,0,0,0-.18,1c0,.32-.07.64-.12.94l-.07.38a1.76,1.76,0,0,0,.19,1.29,2.12,2.12,0,0,0,1,.91,1.88,1.88,0,0,0,1.47,0,1.85,1.85,0,0,0,1-1.14q1.29-1.89,2.46-3.78t2.46-3.86l4.77-7.72,4.69-7.64,1.77-2.83c.58-.94,1.2-1.88,1.86-2.84l-1.14,7.26-.68,4.39-.15,1.13-.07.61-.08.53a6.36,6.36,0,0,0-.15,1.13,6.56,6.56,0,0,0-.15,1.14A2,2,0,0,0,178,87.5a2.08,2.08,0,0,0,1.59.38,2.47,2.47,0,0,0,1.44-.84l10-13.5-.39,2.91-.23,2-.23,2c-.1.7-.16,1.4-.19,2.08s-.06,1.37-.11,2.08v1.06a9.23,9.23,0,0,0,.08,1.13c0,.2,0,.41,0,.61s.07.43.12.68l.22.75a2,2,0,0,1,.15.38c.06.15.13.33.23.53l.3.53.31.3.3.31a3.73,3.73,0,0,0,.83.53l1,.22H194a.4.4,0,0,0,.15,0,.43.43,0,0,1,.22,0,.69.69,0,0,1,.23-.08.21.21,0,0,0,.15-.07h.15l.08-.08.07-.07c.06,0,.13-.06.23-.16l.3-.15.16-.15.52-.53.69-.83.6-.83q.6-.84,1.17-1.59c.38-.5.77-1,1.18-1.59l2.27-3.18,2.27-3.1,3.4-4.77L209,72.82l1.14-1.59.6-.75.53-.76c.2-.25.39-.52.57-.79a4.78,4.78,0,0,1,.64-.8l.24-.33c-.35,1.37-.7,2.74-1,4.11-.43,1.77-.84,3.56-1.25,5.37a26.68,26.68,0,0,0-.6,2.73c-.16.91-.33,1.81-.53,2.72s-.29,1.82-.42,2.73-.24,1.86-.34,2.87v.23a1.75,1.75,0,0,0,.26,1.36,2.71,2.71,0,0,0,1.1.91,2,2,0,0,0,1.7,0,2.39,2.39,0,0,0,1.25-1.21,69.83,69.83,0,0,1,5.37-7.87c1-1.26,2-2.49,3.11-3.67s2.16-2.36,3.32-3.52l2-2c.66-.66,1.34-1.29,2-1.9v2a2.75,2.75,0,0,0,.15.87l.31,1a11.14,11.14,0,0,0,.68,1.06,4.41,4.41,0,0,0,1.21.91,2.41,2.41,0,0,0,.68.15l.6.15a3,3,0,0,0,.5,0l.49,0a11.06,11.06,0,0,0,6.24-2.36c-.19,1.24-.36,2.5-.49,3.79l-.23,2.12c0,.41,0,.77,0,1.1s0,.69,0,1.1a19.79,19.79,0,0,0,0,2.19,21.71,21.71,0,0,0,.19,2.27l.15,1.21a10.26,10.26,0,0,0,.22,1.21l.38,1.29a5.59,5.59,0,0,0,.3.64,3.83,3.83,0,0,1,.31.64,8,8,0,0,0,.45.68l.53.68a8.44,8.44,0,0,0,1.51,1.21,6.63,6.63,0,0,0,1.82.53.12.12,0,0,1,.11,0,.16.16,0,0,0,.12,0h.68a3.56,3.56,0,0,0,.83-.08A3.38,3.38,0,0,0,247,95a4.94,4.94,0,0,0,.72-.23l1.21-.45,1.13-.61,1-.68a20.44,20.44,0,0,0,3.41-2.87c.55-.51,1.06-1,1.51-1.52s.91-1,1.36-1.59.91-1.09,1.37-1.62.88-1.07,1.28-1.63l2.42-3.25c.41-.56.8-1.12,1.18-1.7s.76-1.15,1.17-1.71c.8-1.1,1.57-2.23,2.31-3.36s1.47-2.28,2.23-3.44a4.78,4.78,0,0,0,.53-.84,7,7,0,0,1,.53-.9l1.06-1.67,1.13-1.74,1.06-1.81.15-.23A2.94,2.94,0,0,0,273.85,61ZM110.79,86.44v-.08h.08Zm122.1-13.77h-.08a.21.21,0,0,1-.15-.07h.23Zm18.53-7.19.23-.45c0,.1,0,.16,0,.19a.33.33,0,0,0,0,.19l-.22,1.89-.15,1-.08.23v.23a.43.43,0,0,1,0,.22.48.48,0,0,0,0,.15c-.1.56-.22,1.11-.37,1.67a9,9,0,0,1-.61,1.59,13.65,13.65,0,0,1-.83,1.36,3,3,0,0,1-.91,1.06,1.29,1.29,0,0,0-.19.23.39.39,0,0,1-.19.15,1.47,1.47,0,0,0-.07-.46c-.05-.2-.09-.39-.12-.56a5.92,5.92,0,0,1,0-.65l.53-1.28.68-1.74.83-1.74c.25-.56.52-1.1.79-1.63Z"/></g></g></svg>